<svg xmlns="http://www.w3.org/2000/svg" xmlns:xlink="http://www.w3.org/1999/xlink" width="100" zoomAndPan="magnify" viewBox="0 0 375 374.999991" height="110" preserveAspectRatio="xMidYMid meet" version="1.0"><defs><g/></defs><g fill="#c2d3e1" fill-opacity="1"><g transform="translate(12.953349, 260.475642)"><g><path d="M 154.980469 0.296875 L 177.800781 0.296875 L 96.308594 -189.355469 L 94.828125 -189.355469 L 10.371094 0.296875 L 16.890625 0.296875 L 50.375 -74.378906 L 122.683594 -74.378906 Z M 52.449219 -79.417969 L 87.121094 -157.351562 L 120.605469 -79.417969 Z M 52.449219 -79.417969 "/></g></g></g><g fill="#c2d3e1" fill-opacity="1"><g transform="translate(201.420491, 260.475642)"><g><path d="M 14.222656 0.296875 L 35.261719 0.296875 L 35.261719 -185.800781 L 14.222656 -185.800781 Z M 58.378906 -107.273438 L 134.832031 -185.800781 L 128.015625 -185.800781 L 40.300781 -95.714844 L 122.386719 0.296875 L 150.242188 0.296875 Z M 58.378906 -107.273438 "/></g></g></g><g fill="#000000" fill-opacity="1"><g transform="translate(26.494913, 180.918354)"><g><path d="M 47.410156 -21.386719 C 47.5 -21.445312 47.53125 -21.476562 47.621094 -21.476562 C 63.433594 -26.898438 74.128906 -37.5 74.128906 -42.5625 C 74.128906 -44.339844 73.011719 -45.421875 71.207031 -45.421875 C 66.867188 -45.421875 60.574219 -38.644531 53.222656 -30.691406 C 51.023438 -28.3125 48.675781 -25.785156 46.234375 -23.253906 C 46.144531 -23.191406 46.113281 -23.164062 46.054688 -23.164062 C 36.988281 -20.269531 27.621094 -19.546875 18.496094 -21.054688 L 18.3125 -21.054688 C 17.710938 -21.054688 17.230469 -20.574219 17.230469 -19.96875 C 17.230469 -19.429688 17.621094 -18.976562 18.164062 -18.886719 C 27.140625 -17.441406 35.632812 -18.191406 43.132812 -20.121094 C 37.078125 -14.15625 30.511719 -8.523438 23.675781 -5.03125 C 23.644531 -5 23.613281 -5 23.554688 -5.03125 L 21.476562 -5.992188 C 15.453125 -8.765625 9.847656 -11.324219 5.632812 -11.324219 C 1.625 -11.324219 -1.054688 -9.308594 -1.054688 -6.265625 C -1.054688 -2.019531 3.464844 0.691406 10.390625 0.691406 C 14.640625 0.691406 19.035156 -0.421875 23.554688 -2.589844 C 23.613281 -2.621094 23.675781 -2.621094 23.734375 -2.589844 C 30.542969 0.480469 38.101562 3.523438 45.273438 3.523438 C 51.839844 3.523438 59.1875 -0.722656 68.164062 -9.699219 C 68.34375 -9.847656 68.433594 -10.152344 68.433594 -10.421875 C 68.433594 -11.023438 67.953125 -11.507812 67.351562 -11.507812 C 67.078125 -11.507812 66.777344 -11.386719 66.566406 -11.144531 C 58.074219 -2.652344 51.234375 1.355469 45.273438 1.355469 C 39.035156 1.355469 32.441406 -1.113281 26.144531 -3.886719 C 33.765625 -8.164062 40.996094 -14.757812 47.410156 -21.386719 Z M 53.976562 -28.3125 C 54.246094 -28.613281 54.519531 -28.917969 54.820312 -29.21875 C 62.167969 -37.167969 67.832031 -43.253906 71.207031 -43.253906 C 71.808594 -43.253906 71.957031 -43.101562 71.957031 -42.5625 C 71.957031 -38.585938 63.644531 -30.121094 50.664062 -24.789062 Z M 1.113281 -6.265625 C 1.113281 -8.042969 2.832031 -9.15625 5.632812 -9.15625 C 9.398438 -9.15625 14.546875 -6.777344 20.574219 -4.007812 L 21.054688 -3.796875 C 17.351562 -2.257812 13.796875 -1.476562 10.390625 -1.476562 C 4.757812 -1.476562 1.113281 -3.375 1.113281 -6.265625 Z M 1.113281 -6.265625 "/></g></g></g><g fill="#000000" fill-opacity="1"><g transform="translate(91.461403, 180.918354)"><g><path d="M 42.890625 -12.230469 C 42.652344 -12.230469 42.441406 -12.167969 42.257812 -12.019531 C 34.609375 -6.296875 22.589844 -1.777344 18.375 -1.777344 C 16.203125 -1.777344 15.332031 -2.410156 15.332031 -3.945312 C 15.332031 -6.476562 17.46875 -9.609375 19.066406 -11.898438 C 20.03125 -13.285156 20.632812 -14.1875 20.632812 -14.878906 C 20.632812 -15.601562 20.058594 -16.144531 19.335938 -16.144531 C 18.675781 -16.144531 17.652344 -15.511719 14.246094 -13.042969 C 13.433594 -14.367188 12.347656 -14.910156 10.421875 -14.910156 C 5.664062 -14.910156 -6.867188 -7.078125 -6.867188 -2.289062 C -6.867188 -0.8125 -5.785156 0.152344 -4.125 0.152344 C -0.210938 0.152344 8.402344 -6.144531 14.15625 -10.300781 C 14.578125 -10.601562 15 -10.902344 15.390625 -11.203125 C 15.875 -11.566406 16.085938 -11.355469 15.785156 -10.84375 C 14.429688 -8.675781 13.164062 -6.234375 13.164062 -3.945312 C 13.164062 -1.144531 15 0.390625 18.375 0.390625 C 23.253906 0.390625 35.875 -4.789062 43.496094 -10.242188 C 43.796875 -10.453125 43.976562 -10.785156 43.976562 -11.144531 C 43.976562 -11.71875 43.464844 -12.230469 42.890625 -12.230469 Z M 12.46875 -11.777344 C 4.910156 -6.296875 -1.234375 -2.019531 -4.125 -2.019531 C -4.488281 -2.019531 -4.699219 -2.167969 -4.699219 -2.53125 C -4.699219 -5.332031 5.933594 -12.742188 10.421875 -12.742188 C 11.65625 -12.742188 12.019531 -12.558594 12.46875 -11.777344 Z M 12.46875 -11.777344 "/></g></g></g><g fill="#000000" fill-opacity="1"><g transform="translate(131.278605, 180.918354)"><g><path d="M 50.152344 -12.230469 C 49.941406 -12.230469 49.757812 -12.167969 49.609375 -12.046875 C 46.535156 -10.300781 43.917969 -9.699219 39.1875 -9.699219 C 33.3125 -9.699219 28.796875 -12.257812 26.625 -13.585938 C 26.566406 -13.613281 26.597656 -13.585938 26.597656 -13.644531 C 26.625 -13.886719 26.625 -14.125 26.625 -14.335938 C 26.625 -15.964844 25.964844 -16.929688 24.789062 -16.929688 C 23.707031 -16.929688 22.953125 -16.175781 22.953125 -15.121094 C 22.953125 -14.335938 23.402344 -13.402344 24.15625 -12.710938 C 24.21875 -12.652344 24.21875 -12.652344 24.1875 -12.589844 C 22.558594 -6.867188 14.910156 1.71875 11.414062 1.71875 C 11.175781 1.71875 11.054688 1.507812 11.054688 0.964844 C 11.054688 -0.722656 12.140625 -4.066406 13.523438 -6.566406 C 13.796875 -7.136719 13.675781 -7.679688 13.164062 -8.074219 L 13.101562 -8.101562 C 12.558594 -8.433594 12.046875 -8.34375 11.625 -7.890625 C 8.34375 -4.125 -2.558594 4.878906 -5.933594 4.878906 C -6.445312 4.878906 -6.6875 4.667969 -6.6875 4.246094 C -6.6875 1.175781 2.199219 -10 7.621094 -13.402344 C 7.921875 -13.585938 8.164062 -13.945312 8.164062 -14.335938 C 8.164062 -14.910156 7.652344 -15.421875 7.078125 -15.421875 C 6.898438 -15.421875 6.71875 -15.363281 6.507812 -15.269531 C 0.933594 -11.777344 -8.855469 0.152344 -8.855469 4.789062 C -8.855469 6.203125 -7.953125 7.046875 -6.386719 7.046875 C -3.074219 7.046875 3.824219 2.109375 8.703125 -2.078125 C 9.15625 -2.441406 9.429688 -2.257812 9.277344 -1.71875 C 9.035156 -0.722656 8.886719 0.242188 8.886719 0.964844 C 8.886719 2.832031 9.789062 3.886719 11.414062 3.886719 C 15.996094 3.886719 23.945312 -4.96875 26.113281 -11.386719 C 28.523438 -9.910156 33.253906 -7.53125 39.1875 -7.53125 C 44.21875 -7.53125 47.289062 -8.222656 50.695312 -10.179688 C 51.023438 -10.390625 51.234375 -10.753906 51.234375 -11.144531 C 51.234375 -11.71875 50.722656 -12.230469 50.152344 -12.230469 Z M 50.152344 -12.230469 "/></g></g></g><g fill="#000000" fill-opacity="1"><g transform="translate(178.384574, 180.918354)"><g/></g></g><g fill="#000000" fill-opacity="1"><g transform="translate(208.503487, 180.918354)"><g><path d="M 47.890625 -46.867188 C 33.402344 -46.867188 14.429688 -37.167969 6.265625 -25.574219 C 6.113281 -25.390625 6.054688 -25.179688 6.054688 -24.941406 C 6.054688 -24.335938 6.535156 -23.855469 7.136719 -23.855469 C 7.5 -23.855469 7.832031 -24.035156 8.042969 -24.335938 C 15.8125 -35.363281 34.097656 -44.699219 47.890625 -44.699219 C 54.910156 -44.699219 58.613281 -42.019531 58.613281 -36.988281 C 58.613281 -24.910156 40.902344 -9.519531 20.964844 -9.519531 C 19.277344 -9.519531 17.46875 -9.730469 15.875 -10.152344 C 21.835938 -18.042969 29.820312 -26.867188 36.867188 -32.832031 C 37.109375 -33.042969 37.257812 -33.34375 37.257812 -33.675781 C 37.257812 -34.277344 36.777344 -34.757812 36.175781 -34.757812 C 35.902344 -34.757812 35.664062 -34.667969 35.480469 -34.488281 C 28.042969 -28.191406 19.757812 -18.976562 13.703125 -10.875 C 13.675781 -10.8125 13.703125 -10.84375 13.613281 -10.84375 C 11.476562 -11.65625 9.941406 -12.769531 9.335938 -13.914062 C 9.15625 -14.277344 8.765625 -14.519531 8.375 -14.519531 C 7.769531 -14.519531 7.289062 -14.035156 7.289062 -13.433594 C 7.289062 -13.253906 7.320312 -13.074219 7.410156 -12.921875 C 8.253906 -11.386719 10 -10 12.347656 -9.035156 C 6.777344 -1.265625 3.796875 3.886719 3.191406 6.957031 C 3.011719 7.890625 2.980469 8.523438 3.101562 8.914062 C 3.3125 9.546875 4.007812 9.878906 4.667969 9.640625 C 5.332031 9.429688 5.785156 8.464844 6.113281 6.65625 C 6.203125 6.203125 6.113281 5.8125 5.8125 5.601562 C 6.988281 2.589844 9.699219 -1.746094 14.457031 -8.222656 C 14.519531 -8.34375 14.457031 -8.285156 14.519531 -8.253906 C 16.566406 -7.679688 18.796875 -7.347656 20.964844 -7.347656 C 41.6875 -7.347656 60.785156 -23.945312 60.785156 -36.988281 C 60.785156 -43.285156 56.113281 -46.867188 47.890625 -46.867188 Z M 47.890625 -46.867188 "/></g></g></g><g fill="#000000" fill-opacity="1"><g transform="translate(255.579349, 180.918354)"><g><path d="M 5.089844 4.125 C 20.902344 4.125 40.601562 -5.03125 48.855469 -10.210938 C 49.15625 -10.421875 49.367188 -10.785156 49.367188 -11.144531 C 49.367188 -11.746094 48.886719 -12.230469 48.285156 -12.230469 C 48.101562 -12.230469 47.863281 -12.167969 47.710938 -12.046875 C 39.546875 -6.929688 20.421875 1.957031 5.089844 1.957031 C 1.113281 1.957031 -1.324219 -1.144531 -0.601562 -5.300781 C 1.71875 -17.980469 24.730469 -44.21875 43.222656 -44.21875 C 47.46875 -44.21875 49.699219 -42.46875 49.21875 -39.578125 C 48.195312 -33.734375 41.234375 -26.234375 31.988281 -20.996094 C 31.625 -20.785156 31.417969 -20.421875 31.417969 -20.03125 C 31.417969 -19.429688 31.898438 -18.945312 32.5 -18.945312 C 32.679688 -18.945312 32.890625 -19.007812 33.042969 -19.097656 C 40.902344 -23.554688 50 -31.597656 51.324219 -39.21875 C 52.078125 -43.523438 48.824219 -46.386719 43.222656 -46.386719 C 23.765625 -46.386719 -0.332031 -18.945312 -2.710938 -5.664062 C -3.703125 -0.210938 -0.269531 4.125 5.089844 4.125 Z M 5.089844 4.125 "/></g></g></g><g fill="#828282" fill-opacity="1"><g transform="translate(40.809677, 296.48418)"><g><path d="M 1.625 0.0273438 L 3.613281 0.0273438 L 3.613281 -17.554688 L 1.625 -17.554688 Z M 1.625 0.0273438 "/></g></g></g><g fill="#828282" fill-opacity="1"><g transform="translate(53.744876, 296.48418)"><g><path d="M 15.621094 -17.554688 L 15.175781 -17.554688 L 15.175781 -2.660156 L 1.398438 -17.890625 L 1.34375 -17.890625 L 1.34375 0.0273438 L 1.792969 0.0273438 L 1.792969 -14.699219 L 15.539062 0.53125 L 15.621094 0.53125 Z M 15.621094 -17.554688 "/></g></g></g><g fill="#828282" fill-opacity="1"><g transform="translate(78.410474, 296.48418)"><g><path d="M 1.316406 -17.554688 L 1.316406 0.449219 C 1.316406 3.21875 0.925781 4.984375 -1.847656 4.984375 L -1.847656 5.429688 C 1.457031 5.429688 3.332031 3.136719 3.332031 0.449219 L 3.332031 -17.554688 Z M 1.316406 -17.554688 "/></g></g></g><g fill="#828282" fill-opacity="1"><g transform="translate(90.757756, 296.48418)"><g><path d="M 14.140625 -17.554688 L 14.140625 -6.71875 C 14.140625 -1.371094 11.421875 -0.195312 8.230469 -0.195312 C 3.5 -0.195312 3.246094 -4.480469 3.246094 -6.46875 L 3.246094 -17.554688 L 1.261719 -17.554688 L 1.261719 -6.46875 C 1.261719 -0.757812 4.507812 0.53125 7.8125 0.53125 C 12.289062 0.53125 14.613281 -1.847656 14.613281 -6.46875 L 14.613281 -17.554688 Z M 14.140625 -17.554688 "/></g></g></g><g fill="#828282" fill-opacity="1"><g transform="translate(114.303504, 296.48418)"><g><path d="M 13.664062 0.0273438 L 7.082031 -8.257812 C 9.15625 -8.539062 12.289062 -9.546875 12.289062 -13.160156 C 12.289062 -17.023438 8.089844 -17.554688 6.664062 -17.554688 C 5.292969 -17.554688 1.34375 -17.554688 1.34375 -17.554688 L 1.34375 0.0273438 L 3.332031 0.0273438 L 3.332031 -8.148438 L 4.621094 -8.148438 L 11.113281 0.0273438 Z M 3.332031 -17.105469 L 5.597656 -17.105469 C 8.457031 -17.105469 10.164062 -15.929688 10.164062 -12.851562 C 10.164062 -9.714844 8.148438 -8.59375 4.871094 -8.59375 L 3.332031 -8.59375 Z M 3.332031 -17.105469 "/></g></g></g><g fill="#828282" fill-opacity="1"><g transform="translate(136.477438, 296.48418)"><g><path d="M 13.636719 -17.554688 L 8.316406 -8.625 L 3.191406 -17.554688 L 0.894531 -17.554688 L 6.550781 -7.644531 L 6.550781 0.0273438 L 8.566406 0.0273438 L 8.566406 -8.175781 L 14.195312 -17.554688 Z M 13.636719 -17.554688 "/></g></g></g><g fill="#828282" fill-opacity="1"><g transform="translate(159.155311, 296.48418)"><g/></g></g><g fill="#828282" fill-opacity="1"><g transform="translate(173.714289, 296.48418)"><g><path d="M 3.332031 -0.421875 L 3.332031 -17.554688 L 1.34375 -17.554688 L 1.34375 0.0273438 L 10.332031 0.0273438 L 10.332031 -0.421875 Z M 3.332031 -0.421875 "/></g></g></g><g fill="#828282" fill-opacity="1"><g transform="translate(192.696661, 296.48418)"><g><path d="M 14.644531 0.0273438 L 16.796875 0.0273438 L 9.097656 -17.890625 L 8.960938 -17.890625 L 0.980469 0.0273438 L 1.597656 0.0273438 L 4.757812 -7.027344 L 11.589844 -7.027344 Z M 4.957031 -7.503906 L 8.230469 -14.867188 L 11.394531 -7.503906 Z M 4.957031 -7.503906 "/></g></g></g><g fill="#828282" fill-opacity="1"><g transform="translate(218.062168, 296.48418)"><g><path d="M 23.601562 -17.554688 L 19.179688 -3.078125 L 13.382812 -17.359375 L 13.269531 -17.359375 L 12.261719 -14.839844 L 7.449219 -3.023438 L 2.996094 -17.554688 L 0.925781 -17.527344 L 6.410156 0.390625 L 6.578125 0.390625 L 12.488281 -14.222656 L 18.421875 0.390625 L 18.589844 0.390625 L 24.105469 -17.554688 Z M 23.601562 -17.554688 "/></g></g></g><g fill="#828282" fill-opacity="1"><g transform="translate(250.734682, 296.48418)"><g><path d="M 13.636719 -17.554688 L 8.316406 -8.625 L 3.191406 -17.554688 L 0.894531 -17.554688 L 6.550781 -7.644531 L 6.550781 0.0273438 L 8.566406 0.0273438 L 8.566406 -8.175781 L 14.195312 -17.554688 Z M 13.636719 -17.554688 "/></g></g></g><g fill="#828282" fill-opacity="1"><g transform="translate(273.412567, 296.48418)"><g><path d="M 10.246094 -17.105469 L 10.246094 -17.554688 L 1.34375 -17.554688 L 1.34375 0.0273438 L 10.246094 0.0273438 L 10.246094 -0.421875 L 3.332031 -0.421875 L 3.332031 -8.929688 L 9.492188 -8.929688 L 9.492188 -9.378906 L 3.332031 -9.378906 L 3.332031 -17.105469 Z M 10.246094 -17.105469 "/></g></g></g><g fill="#828282" fill-opacity="1"><g transform="translate(292.422942, 296.48418)"><g><path d="M 13.664062 0.0273438 L 7.082031 -8.257812 C 9.15625 -8.539062 12.289062 -9.546875 12.289062 -13.160156 C 12.289062 -17.023438 8.089844 -17.554688 6.664062 -17.554688 C 5.292969 -17.554688 1.34375 -17.554688 1.34375 -17.554688 L 1.34375 0.0273438 L 3.332031 0.0273438 L 3.332031 -8.148438 L 4.621094 -8.148438 L 11.113281 0.0273438 Z M 3.332031 -17.105469 L 5.597656 -17.105469 C 8.457031 -17.105469 10.164062 -15.929688 10.164062 -12.851562 C 10.164062 -9.714844 8.148438 -8.59375 4.871094 -8.59375 L 3.332031 -8.59375 Z M 3.332031 -17.105469 "/></g></g></g><g fill="#828282" fill-opacity="1"><g transform="translate(314.596876, 296.48418)"><g><path d="M 0.699219 -1.289062 L 0.699219 -0.644531 C 0.699219 -0.644531 2.40625 0.726562 5.429688 0.726562 C 8.457031 0.726562 11.339844 -1.371094 11.339844 -4.480469 C 11.339844 -10.75 2.351562 -8.902344 2.351562 -14 C 2.351562 -15.988281 3.722656 -17.609375 6.132812 -17.609375 C 8.511719 -17.609375 10.050781 -16.460938 10.050781 -16.460938 L 10.023438 -17.050781 C 10.023438 -17.050781 8.34375 -18.085938 6.101562 -18.085938 C 3.890625 -18.085938 0.785156 -16.742188 0.785156 -13.242188 C 0.785156 -6.972656 9.742188 -9.324219 9.742188 -3.78125 C 9.742188 -1.0625 7.671875 0.28125 5.429688 0.28125 C 3.023438 0.28125 1.679688 -0.53125 0.699219 -1.289062 Z M 0.699219 -1.289062 "/></g></g></g></svg>