<svg xmlns="http://www.w3.org/2000/svg" xmlns:xlink="http://www.w3.org/1999/xlink" width="470" zoomAndPan="magnify" viewBox="0 0 375 374.999991" height="120" preserveAspectRatio="xMidYMid meet" version="1.0"><defs><g/></defs><g fill="#c2d3e1" fill-opacity="1"><g transform="translate(44.268051, 260.749738)"><g><path d="M 127.1875 0.242188 L 145.914062 0.242188 L 79.035156 -155.398438 L 77.820312 -155.398438 L 8.511719 0.242188 L 13.863281 0.242188 L 41.34375 -61.039062 L 100.679688 -61.039062 Z M 43.042969 -65.175781 L 71.496094 -129.132812 L 98.976562 -65.175781 Z M 43.042969 -65.175781 "/></g></g></g><g fill="#c2d3e1" fill-opacity="1"><g transform="translate(198.932561, 260.749738)"><g><path d="M 11.671875 0.242188 L 28.941406 0.242188 L 28.941406 -152.480469 L 11.671875 -152.480469 Z M 47.910156 -88.035156 L 110.652344 -152.480469 L 105.058594 -152.480469 L 33.074219 -78.550781 L 100.4375 0.242188 L 123.296875 0.242188 Z M 47.910156 -88.035156 "/></g></g></g><g fill="#000000" fill-opacity="1"><g transform="translate(59.717811, 193.989432)"><g><path d="M 35.917969 2.597656 C 40.894531 2.597656 46.628906 -0.648438 53.878906 -7.898438 C 53.984375 -8.007812 54.09375 -8.113281 54.09375 -8.222656 C 54.09375 -8.65625 53.769531 -8.871094 53.445312 -8.871094 C 53.230469 -8.871094 53.121094 -8.761719 53.011719 -8.65625 C 45.980469 -1.621094 40.570312 1.296875 35.917969 1.296875 C 30.726562 1.296875 25.316406 -0.757812 20.230469 -3.027344 C 26.398438 -6.382812 32.347656 -11.792969 37.542969 -17.203125 C 50.089844 -21.421875 58.53125 -29.859375 58.53125 -33.753906 C 58.53125 -35.054688 57.773438 -35.808594 56.472656 -35.808594 C 53.121094 -35.808594 48.253906 -30.507812 42.410156 -24.234375 C 40.679688 -22.285156 38.730469 -20.230469 36.785156 -18.175781 C 30.292969 -16.121094 22.71875 -15.144531 14.605469 -16.445312 L 14.496094 -16.445312 C 14.171875 -16.445312 13.957031 -16.226562 13.957031 -15.796875 C 13.957031 -15.578125 14.171875 -15.253906 14.390625 -15.253906 C 21.855469 -14.066406 28.886719 -14.714844 35.054688 -16.445312 C 29.96875 -11.46875 24.558594 -6.597656 18.714844 -3.679688 C 9.953125 -7.679688 7.355469 -8.761719 4.4375 -8.761719 C 1.40625 -8.761719 -0.648438 -7.25 -0.648438 -4.976562 C -0.648438 -1.730469 2.921875 0.324219 8.222656 0.324219 C 11.792969 0.324219 15.363281 -0.648438 18.714844 -2.378906 C 24.234375 0.109375 30.183594 2.597656 35.917969 2.597656 Z M 39.273438 -19.042969 C 40.679688 -20.554688 42.085938 -21.960938 43.273438 -23.367188 C 49.117188 -29.644531 53.660156 -34.511719 56.472656 -34.511719 C 57.125 -34.511719 57.339844 -34.296875 57.339844 -33.753906 C 57.339844 -30.402344 50.199219 -23.261719 39.273438 -19.042969 Z M 8.222656 -0.972656 C 3.570312 -0.972656 0.648438 -2.488281 0.648438 -4.976562 C 0.648438 -6.492188 2.054688 -7.464844 4.4375 -7.464844 C 6.925781 -7.464844 9.628906 -6.492188 17.308594 -3.027344 C 14.28125 -1.730469 11.25 -0.972656 8.222656 -0.972656 Z M 8.222656 -0.972656 "/></g></g></g><g fill="#000000" fill-opacity="1"><g transform="translate(111.210732, 193.989432)"><g><path d="M 14.605469 0.109375 C 18.390625 0.109375 28.34375 -4.003906 34.402344 -8.332031 C 34.511719 -8.4375 34.621094 -8.65625 34.621094 -8.871094 C 34.621094 -9.195312 34.402344 -9.414062 34.078125 -9.414062 C 33.863281 -9.414062 33.753906 -9.414062 33.648438 -9.304688 C 27.589844 -4.761719 17.960938 -1.191406 14.605469 -1.191406 C 12.765625 -1.191406 11.902344 -1.730469 11.902344 -3.136719 C 11.902344 -5.191406 13.632812 -7.789062 14.929688 -9.628906 C 15.6875 -10.710938 16.121094 -11.359375 16.121094 -11.792969 C 16.121094 -12.226562 15.796875 -12.550781 15.363281 -12.550781 C 14.820312 -12.550781 13.523438 -11.683594 11.25 -9.953125 C 10.601562 -11.144531 9.84375 -11.574219 8.222656 -11.574219 C 4.542969 -11.574219 -5.191406 -5.519531 -5.191406 -1.839844 C -5.191406 -0.757812 -4.4375 -0.109375 -3.246094 -0.109375 C -0.214844 -0.109375 6.492188 -5.085938 11.035156 -8.332031 C 11.902344 -8.980469 12.65625 -9.519531 13.199219 -9.84375 C 13.414062 -10.0625 13.738281 -9.953125 13.414062 -9.628906 C 12.117188 -7.679688 10.710938 -5.300781 10.710938 -3.136719 C 10.710938 -0.972656 12.007812 0.109375 14.605469 0.109375 Z M -3.246094 -1.40625 C -3.785156 -1.40625 -4.003906 -1.515625 -4.003906 -1.839844 C -4.003906 -4.4375 4.542969 -10.386719 8.222656 -10.386719 C 9.414062 -10.386719 9.738281 -10.167969 10.167969 -9.304688 C 5.734375 -5.949219 -0.648438 -1.40625 -3.246094 -1.40625 Z M -3.246094 -1.40625 "/></g></g></g><g fill="#000000" fill-opacity="1"><g transform="translate(142.798836, 193.989432)"><g><path d="M -5.085938 5.300781 C -2.378906 5.300781 3.679688 0.972656 7.464844 -2.488281 C 7.789062 -2.8125 8.007812 -2.597656 7.898438 -2.273438 C 7.574219 -1.296875 7.25 -0.109375 7.25 0.757812 C 7.25 2.054688 7.898438 2.8125 9.085938 2.8125 C 12.550781 2.8125 18.824219 -4.109375 20.449219 -9.085938 C 20.554688 -9.304688 20.664062 -9.304688 20.773438 -9.195312 C 22.71875 -8.113281 26.398438 -6.167969 31.050781 -6.167969 C 35.054688 -6.167969 37.433594 -6.816406 40.136719 -8.332031 C 40.246094 -8.4375 40.460938 -8.65625 40.460938 -8.871094 C 40.460938 -9.195312 40.136719 -9.414062 39.8125 -9.414062 L 39.488281 -9.414062 C 37 -7.898438 34.835938 -7.464844 31.050781 -7.464844 C 26.398438 -7.464844 22.71875 -9.519531 20.988281 -10.601562 C 20.878906 -10.601562 20.878906 -10.710938 20.878906 -10.925781 L 20.878906 -11.359375 C 20.878906 -12.441406 20.554688 -13.199219 19.691406 -13.199219 C 18.933594 -13.199219 18.5 -12.765625 18.5 -12.007812 C 18.5 -11.46875 18.824219 -10.710938 19.367188 -10.277344 C 19.472656 -10.167969 19.472656 -10.0625 19.472656 -9.953125 C 18.175781 -5.519531 12.117188 1.621094 9.085938 1.621094 C 8.65625 1.621094 8.546875 1.191406 8.546875 0.757812 C 8.546875 -0.648438 9.414062 -3.355469 10.496094 -5.300781 C 10.710938 -5.625 10.601562 -5.949219 10.277344 -6.167969 C 9.953125 -6.382812 9.628906 -6.382812 9.414062 -6.058594 C 6.816406 -3.136719 -1.949219 4.109375 -5.085938 4.109375 C -5.300781 4.109375 -5.519531 4.003906 -5.519531 3.679688 C -5.519531 0.867188 1.515625 -8.007812 5.949219 -10.820312 C 6.167969 -10.925781 6.273438 -11.144531 6.273438 -11.359375 C 6.273438 -11.683594 5.949219 -12.007812 5.625 -12.007812 C 5.519531 -12.007812 5.410156 -11.902344 5.300781 -11.902344 C 0.867188 -9.195312 -6.816406 0.214844 -6.816406 3.785156 C -6.816406 4.761719 -6.167969 5.300781 -5.085938 5.300781 Z M -5.085938 5.300781 "/></g></g></g><g fill="#000000" fill-opacity="1"><g transform="translate(180.120384, 193.989432)"><g/></g></g><g fill="#000000" fill-opacity="1"><g transform="translate(204.027813, 193.989432)"><g><path d="M 3.679688 7.464844 C 4.109375 7.25 4.4375 6.273438 4.652344 5.191406 C 4.652344 4.867188 4.542969 4.652344 4.328125 4.542969 C 5.191406 2.273438 7.140625 -1.082031 11.359375 -6.816406 C 12.984375 -6.382812 14.820312 -6.058594 16.660156 -6.058594 C 32.996094 -6.058594 48.035156 -19.148438 48.035156 -29.320312 C 48.035156 -34.1875 44.355469 -37 37.972656 -37 C 26.613281 -37 11.574219 -29.320312 5.191406 -20.121094 C 5.085938 -20.015625 5.085938 -19.90625 5.085938 -19.796875 C 5.085938 -19.472656 5.300781 -19.148438 5.625 -19.148438 C 5.84375 -19.148438 6.058594 -19.257812 6.167969 -19.472656 C 12.441406 -28.238281 26.9375 -35.703125 37.972656 -35.703125 C 43.707031 -35.703125 46.738281 -33.539062 46.738281 -29.320312 C 46.738281 -19.691406 32.566406 -7.355469 16.660156 -7.355469 C 15.039062 -7.355469 13.523438 -7.574219 12.226562 -7.898438 C 16.878906 -14.28125 23.367188 -21.421875 29.101562 -26.289062 C 29.210938 -26.398438 29.320312 -26.507812 29.320312 -26.722656 C 29.320312 -27.046875 28.996094 -27.371094 28.667969 -27.371094 C 28.5625 -27.371094 28.453125 -27.261719 28.34375 -27.15625 C 22.394531 -22.179688 15.796875 -14.820312 10.925781 -8.332031 C 9.085938 -8.980469 7.789062 -9.953125 7.25 -10.925781 C 7.140625 -11.144531 6.925781 -11.25 6.597656 -11.25 C 6.273438 -11.25 6.058594 -11.035156 6.058594 -10.710938 L 6.058594 -10.386719 C 6.816406 -9.085938 8.222656 -8.007812 10.167969 -7.25 C 5.410156 -0.757812 3.246094 3.246094 2.8125 5.519531 C 2.703125 6.167969 2.597656 6.707031 2.703125 7.03125 C 2.8125 7.355469 3.246094 7.574219 3.679688 7.464844 Z M 3.679688 7.464844 "/></g></g></g><g fill="#000000" fill-opacity="1"><g transform="translate(241.349361, 193.989432)"><g><path d="M 4.003906 3.027344 C 16.554688 3.027344 32.132812 -4.21875 38.625 -8.332031 C 38.839844 -8.4375 38.949219 -8.65625 38.949219 -8.871094 C 38.949219 -9.195312 38.625 -9.414062 38.296875 -9.414062 L 37.972656 -9.414062 C 31.484375 -5.300781 16.226562 1.839844 4.003906 1.839844 C 0.757812 1.839844 -1.296875 -0.757812 -0.648438 -4.21875 C 1.082031 -14.390625 19.472656 -35.269531 34.296875 -35.269531 C 37.867188 -35.269531 39.707031 -33.863281 39.273438 -31.375 C 38.40625 -26.613281 32.890625 -20.664062 25.53125 -16.445312 C 25.316406 -16.335938 25.207031 -16.121094 25.207031 -15.902344 C 25.207031 -15.578125 25.425781 -15.253906 25.75 -15.253906 C 25.855469 -15.253906 25.964844 -15.253906 26.074219 -15.363281 C 32.347656 -18.933594 39.488281 -25.207031 40.460938 -31.160156 C 41.113281 -34.402344 38.625 -36.566406 34.296875 -36.566406 C 18.933594 -36.566406 0 -14.929688 -1.949219 -4.4375 C -2.703125 -0.214844 0 3.027344 4.003906 3.027344 Z M 4.003906 3.027344 "/></g></g></g></svg>