<svg xmlns="http://www.w3.org/2000/svg" xmlns:xlink="http://www.w3.org/1999/xlink" width="120" zoomAndPan="magnify" viewBox="0 0 375 374.999991" height="120" preserveAspectRatio="xMidYMid meet" version="1.0"><defs><g/></defs><g fill="#0000ff" fill-opacity="1"><g transform="translate(3.140629, 281.450006)"><g><path d="M 163.699219 0.3125 L 187.796875 0.3125 L 101.722656 -200.003906 L 100.160156 -200.003906 L 10.953125 0.3125 L 17.839844 0.3125 L 53.210938 -78.5625 L 129.582031 -78.5625 Z M 55.402344 -83.882812 L 92.019531 -166.203125 L 127.390625 -83.882812 Z M 55.402344 -83.882812 "/></g></g></g><g fill="#0000ff" fill-opacity="1"><g transform="translate(202.206704, 281.450006)"><g><path d="M 15.023438 0.3125 L 37.246094 0.3125 L 37.246094 -196.25 L 15.023438 -196.25 Z M 61.660156 -113.304688 L 142.414062 -196.25 L 135.214844 -196.25 L 42.566406 -101.097656 L 129.269531 0.3125 L 158.691406 0.3125 Z M 61.660156 -113.304688 "/></g></g></g><g fill="#000000" fill-opacity="1"><g transform="translate(21.944287, 196.48947)"><g><path d="M 50.066406 -22.585938 C 50.164062 -22.648438 50.195312 -22.679688 50.289062 -22.679688 C 66.988281 -28.40625 78.28125 -39.601562 78.28125 -44.945312 C 78.28125 -46.824219 77.105469 -47.96875 75.195312 -47.96875 C 70.617188 -47.96875 63.96875 -40.8125 56.207031 -32.414062 C 53.882812 -29.902344 51.402344 -27.230469 48.828125 -24.558594 C 48.730469 -24.492188 48.699219 -24.460938 48.636719 -24.460938 C 39.0625 -21.40625 29.167969 -20.644531 19.53125 -22.234375 L 19.339844 -22.234375 C 18.703125 -22.234375 18.195312 -21.726562 18.195312 -21.089844 C 18.195312 -20.515625 18.609375 -20.039062 19.179688 -19.945312 C 28.660156 -18.417969 37.628906 -19.210938 45.550781 -21.25 C 39.15625 -14.949219 32.222656 -9.003906 25.003906 -5.3125 C 24.96875 -5.28125 24.9375 -5.28125 24.875 -5.3125 L 22.679688 -6.328125 C 16.316406 -9.257812 10.402344 -11.960938 5.949219 -11.960938 C 1.71875 -11.960938 -1.113281 -9.828125 -1.113281 -6.617188 C -1.113281 -2.132812 3.65625 0.730469 10.972656 0.730469 C 15.460938 0.730469 20.101562 -0.445312 24.875 -2.734375 C 24.9375 -2.765625 25.003906 -2.765625 25.066406 -2.734375 C 32.253906 0.507812 40.238281 3.722656 47.808594 3.722656 C 54.742188 3.722656 62.503906 -0.761719 71.984375 -10.242188 C 72.175781 -10.402344 72.269531 -10.71875 72.269531 -11.007812 C 72.269531 -11.640625 71.761719 -12.152344 71.125 -12.152344 C 70.839844 -12.152344 70.519531 -12.023438 70.296875 -11.769531 C 61.328125 -2.800781 54.105469 1.429688 47.808594 1.429688 C 41.226562 1.429688 34.257812 -1.175781 27.609375 -4.101562 C 35.65625 -8.621094 43.292969 -15.585938 50.066406 -22.585938 Z M 57.003906 -29.902344 C 57.289062 -30.21875 57.574219 -30.535156 57.894531 -30.855469 C 65.652344 -39.253906 71.632812 -45.679688 75.195312 -45.679688 C 75.832031 -45.679688 75.992188 -45.519531 75.992188 -44.945312 C 75.992188 -40.746094 67.210938 -31.808594 53.503906 -26.179688 Z M 1.175781 -6.617188 C 1.175781 -8.492188 2.988281 -9.671875 5.949219 -9.671875 C 9.925781 -9.671875 15.363281 -7.15625 21.726562 -4.230469 L 22.234375 -4.007812 C 18.320312 -2.386719 14.570312 -1.558594 10.972656 -1.558594 C 5.027344 -1.558594 1.175781 -3.5625 1.175781 -6.617188 Z M 1.175781 -6.617188 "/></g></g></g><g fill="#000000" fill-opacity="1"><g transform="translate(90.556752, 196.48947)"><g><path d="M 45.296875 -12.914062 C 45.042969 -12.914062 44.820312 -12.851562 44.628906 -12.691406 C 36.546875 -6.648438 23.855469 -1.875 19.402344 -1.875 C 17.113281 -1.875 16.191406 -2.542969 16.191406 -4.167969 C 16.191406 -6.839844 18.449219 -10.148438 20.136719 -12.566406 C 21.152344 -14.027344 21.789062 -14.980469 21.789062 -15.714844 C 21.789062 -16.476562 21.183594 -17.050781 20.421875 -17.050781 C 19.722656 -17.050781 18.640625 -16.382812 15.046875 -13.773438 C 14.1875 -15.171875 13.042969 -15.746094 11.007812 -15.746094 C 5.980469 -15.746094 -7.253906 -7.476562 -7.253906 -2.417969 C -7.253906 -0.859375 -6.105469 0.160156 -4.359375 0.160156 C -0.222656 0.160156 8.875 -6.488281 14.949219 -10.878906 C 15.394531 -11.195312 15.839844 -11.515625 16.253906 -11.832031 C 16.761719 -12.214844 16.984375 -11.992188 16.667969 -11.453125 C 15.238281 -9.160156 13.902344 -6.585938 13.902344 -4.167969 C 13.902344 -1.207031 15.839844 0.414062 19.402344 0.414062 C 24.558594 0.414062 37.882812 -5.058594 45.933594 -10.816406 C 46.25 -11.039062 46.441406 -11.386719 46.441406 -11.769531 C 46.441406 -12.375 45.902344 -12.914062 45.296875 -12.914062 Z M 13.167969 -12.4375 C 5.183594 -6.648438 -1.304688 -2.132812 -4.359375 -2.132812 C -4.738281 -2.132812 -4.960938 -2.289062 -4.960938 -2.671875 C -4.960938 -5.628906 6.265625 -13.457031 11.007812 -13.457031 C 12.308594 -13.457031 12.691406 -13.265625 13.167969 -12.4375 Z M 13.167969 -12.4375 "/></g></g></g><g fill="#000000" fill-opacity="1"><g transform="translate(132.608522, 196.48947)"><g><path d="M 52.960938 -12.914062 C 52.738281 -12.914062 52.546875 -12.851562 52.390625 -12.722656 C 49.144531 -10.878906 46.378906 -10.242188 41.382812 -10.242188 C 35.179688 -10.242188 30.410156 -12.945312 28.121094 -14.347656 C 28.054688 -14.378906 28.085938 -14.347656 28.085938 -14.410156 C 28.121094 -14.664062 28.121094 -14.917969 28.121094 -15.140625 C 28.121094 -16.859375 27.417969 -17.875 26.179688 -17.875 C 25.035156 -17.875 24.238281 -17.082031 24.238281 -15.96875 C 24.238281 -15.140625 24.714844 -14.15625 25.511719 -13.421875 C 25.574219 -13.359375 25.574219 -13.359375 25.542969 -13.296875 C 23.824219 -7.253906 15.746094 1.8125 12.054688 1.8125 C 11.800781 1.8125 11.675781 1.589844 11.675781 1.019531 C 11.675781 -0.761719 12.820312 -4.292969 14.28125 -6.933594 C 14.570312 -7.539062 14.441406 -8.113281 13.902344 -8.523438 L 13.835938 -8.558594 C 13.265625 -8.90625 12.722656 -8.8125 12.277344 -8.335938 C 8.8125 -4.359375 -2.703125 5.152344 -6.265625 5.152344 C -6.808594 5.152344 -7.0625 4.929688 -7.0625 4.484375 C -7.0625 1.242188 2.320312 -10.5625 8.046875 -14.15625 C 8.367188 -14.347656 8.621094 -14.726562 8.621094 -15.140625 C 8.621094 -15.746094 8.078125 -16.285156 7.476562 -16.285156 C 7.285156 -16.285156 7.09375 -16.222656 6.871094 -16.128906 C 0.984375 -12.4375 -9.351562 0.160156 -9.351562 5.058594 C -9.351562 6.550781 -8.398438 7.441406 -6.742188 7.441406 C -3.246094 7.441406 4.039062 2.226562 9.191406 -2.195312 C 9.671875 -2.578125 9.957031 -2.386719 9.796875 -1.8125 C 9.542969 -0.761719 9.382812 0.253906 9.382812 1.019531 C 9.382812 2.988281 10.339844 4.101562 12.054688 4.101562 C 16.890625 4.101562 25.289062 -5.25 27.578125 -12.023438 C 30.125 -10.464844 35.117188 -7.953125 41.382812 -7.953125 C 46.695312 -7.953125 49.941406 -8.683594 53.535156 -10.75 C 53.882812 -10.972656 54.105469 -11.355469 54.105469 -11.769531 C 54.105469 -12.375 53.566406 -12.914062 52.960938 -12.914062 Z M 52.960938 -12.914062 "/></g></g></g><g fill="#000000" fill-opacity="1"><g transform="translate(182.358126, 196.48947)"><g/></g></g><g fill="#000000" fill-opacity="1"><g transform="translate(214.167343, 196.48947)"><g><path d="M 50.578125 -49.496094 C 35.277344 -49.496094 15.238281 -39.253906 6.617188 -27.007812 C 6.457031 -26.816406 6.394531 -26.59375 6.394531 -26.339844 C 6.394531 -25.703125 6.902344 -25.191406 7.539062 -25.191406 C 7.921875 -25.191406 8.269531 -25.382812 8.492188 -25.703125 C 16.699219 -37.34375 36.007812 -47.203125 50.578125 -47.203125 C 57.988281 -47.203125 61.902344 -44.375 61.902344 -39.0625 C 61.902344 -26.304688 43.195312 -10.050781 22.140625 -10.050781 C 20.359375 -10.050781 18.449219 -10.273438 16.761719 -10.71875 C 23.0625 -19.054688 31.492188 -28.375 38.933594 -34.671875 C 39.1875 -34.894531 39.347656 -35.210938 39.347656 -35.5625 C 39.347656 -36.199219 38.839844 -36.707031 38.203125 -36.707031 C 37.917969 -36.707031 37.660156 -36.613281 37.472656 -36.421875 C 29.613281 -29.773438 20.867188 -20.039062 14.472656 -11.484375 C 14.441406 -11.417969 14.472656 -11.453125 14.378906 -11.453125 C 12.121094 -12.308594 10.496094 -13.488281 9.859375 -14.695312 C 9.671875 -15.078125 9.257812 -15.332031 8.84375 -15.332031 C 8.207031 -15.332031 7.699219 -14.824219 7.699219 -14.1875 C 7.699219 -13.996094 7.730469 -13.804688 7.824219 -13.644531 C 8.714844 -12.023438 10.5625 -10.5625 13.042969 -9.542969 C 7.15625 -1.335938 4.007812 4.101562 3.371094 7.347656 C 3.179688 8.335938 3.148438 9.003906 3.277344 9.414062 C 3.5 10.082031 4.230469 10.433594 4.929688 10.179688 C 5.628906 9.957031 6.105469 8.9375 6.457031 7.03125 C 6.550781 6.550781 6.457031 6.140625 6.140625 5.917969 C 7.378906 2.734375 10.242188 -1.84375 15.269531 -8.683594 C 15.332031 -8.8125 15.269531 -8.746094 15.332031 -8.714844 C 17.496094 -8.113281 19.847656 -7.761719 22.140625 -7.761719 C 44.023438 -7.761719 64.191406 -25.289062 64.191406 -39.0625 C 64.191406 -45.710938 59.261719 -49.496094 50.578125 -49.496094 Z M 50.578125 -49.496094 "/></g></g></g><g fill="#000000" fill-opacity="1"><g transform="translate(263.885143, 196.48947)"><g><path d="M 5.375 4.359375 C 22.074219 4.359375 42.878906 -5.3125 51.59375 -10.785156 C 51.914062 -11.007812 52.136719 -11.386719 52.136719 -11.769531 C 52.136719 -12.40625 51.625 -12.914062 50.988281 -12.914062 C 50.800781 -12.914062 50.542969 -12.851562 50.386719 -12.722656 C 41.765625 -7.316406 21.566406 2.066406 5.375 2.066406 C 1.175781 2.066406 -1.398438 -1.207031 -0.636719 -5.597656 C 1.8125 -18.988281 26.117188 -46.695312 45.644531 -46.695312 C 50.132812 -46.695312 52.484375 -44.851562 51.976562 -41.796875 C 50.894531 -35.625 43.546875 -27.707031 33.78125 -22.171875 C 33.398438 -21.949219 33.175781 -21.566406 33.175781 -21.152344 C 33.175781 -20.515625 33.6875 -20.007812 34.320312 -20.007812 C 34.511719 -20.007812 34.734375 -20.070312 34.894531 -20.167969 C 43.195312 -24.875 52.804688 -33.367188 54.203125 -41.414062 C 54.996094 -45.964844 51.5625 -48.984375 45.644531 -48.984375 C 25.097656 -48.984375 -0.351562 -20.007812 -2.863281 -5.980469 C -3.914062 -0.222656 -0.285156 4.359375 5.375 4.359375 Z M 5.375 4.359375 "/></g></g></g></svg>